G04 #@! TF.GenerationSoftware,KiCad,Pcbnew,8.0.7*
G04 #@! TF.CreationDate,2025-01-11T12:37:20+01:00*
G04 #@! TF.ProjectId,NGCL,4e47434c-2e6b-4696-9361-645f70636258,rev?*
G04 #@! TF.SameCoordinates,Original*
G04 #@! TF.FileFunction,Copper,L2,Bot*
G04 #@! TF.FilePolarity,Positive*
%FSLAX46Y46*%
G04 Gerber Fmt 4.6, Leading zero omitted, Abs format (unit mm)*
G04 Created by KiCad (PCBNEW 8.0.7) date 2025-01-11 12:37:20*
%MOMM*%
%LPD*%
G01*
G04 APERTURE LIST*
G04 #@! TA.AperFunction,ComponentPad*
%ADD10C,0.300000*%
G04 #@! TD*
G04 #@! TA.AperFunction,ViaPad*
%ADD11C,0.600000*%
G04 #@! TD*
G04 APERTURE END LIST*
D10*
G04 #@! TO.P,U1,25,EP*
G04 #@! TO.N,GND*
X145987500Y-104750000D03*
X147087500Y-103650000D03*
X147087500Y-104750000D03*
X147087500Y-105850000D03*
X148187500Y-104750000D03*
G04 #@! TD*
D11*
G04 #@! TO.N,GND*
X141000000Y-97000000D03*
X143400000Y-100000000D03*
X143400000Y-98000000D03*
G04 #@! TD*
G04 #@! TA.AperFunction,Conductor*
G04 #@! TO.N,GND*
G36*
X155442539Y-95520185D02*
G01*
X155488294Y-95572989D01*
X155499500Y-95624500D01*
X155499500Y-110375500D01*
X155479815Y-110442539D01*
X155427011Y-110488294D01*
X155375500Y-110499500D01*
X139624500Y-110499500D01*
X139557461Y-110479815D01*
X139511706Y-110427011D01*
X139500500Y-110375500D01*
X139500500Y-106404430D01*
X146745199Y-106404430D01*
X146745199Y-106404431D01*
X146855312Y-106462223D01*
X147008575Y-106500000D01*
X147166425Y-106500000D01*
X147319685Y-106462224D01*
X147429799Y-106404430D01*
X147087501Y-106062132D01*
X147087500Y-106062132D01*
X146745199Y-106404430D01*
X139500500Y-106404430D01*
X139500500Y-105850000D01*
X146432726Y-105850000D01*
X146451753Y-106006699D01*
X146507722Y-106154283D01*
X146507725Y-106154288D01*
X146533596Y-106191770D01*
X146533597Y-106191770D01*
X146875368Y-105850000D01*
X146855477Y-105830109D01*
X146987500Y-105830109D01*
X146987500Y-105869891D01*
X147002724Y-105906645D01*
X147030855Y-105934776D01*
X147067609Y-105950000D01*
X147107391Y-105950000D01*
X147144145Y-105934776D01*
X147172276Y-105906645D01*
X147187500Y-105869891D01*
X147187500Y-105849999D01*
X147299632Y-105849999D01*
X147299632Y-105850001D01*
X147641401Y-106191770D01*
X147667273Y-106154290D01*
X147723247Y-106006697D01*
X147742273Y-105850000D01*
X147723247Y-105693302D01*
X147667273Y-105545709D01*
X147641401Y-105508229D01*
X147641401Y-105508228D01*
X147299632Y-105849999D01*
X147187500Y-105849999D01*
X147187500Y-105830109D01*
X147172276Y-105793355D01*
X147144145Y-105765224D01*
X147107391Y-105750000D01*
X147067609Y-105750000D01*
X147030855Y-105765224D01*
X147002724Y-105793355D01*
X146987500Y-105830109D01*
X146855477Y-105830109D01*
X146533596Y-105508228D01*
X146507727Y-105545707D01*
X146507724Y-105545713D01*
X146451753Y-105693301D01*
X146432726Y-105850000D01*
X139500500Y-105850000D01*
X139500500Y-105304430D01*
X145645199Y-105304430D01*
X145645199Y-105304431D01*
X145755312Y-105362223D01*
X145908575Y-105400000D01*
X146066425Y-105400000D01*
X146219685Y-105362224D01*
X146329799Y-105304430D01*
X146325369Y-105300000D01*
X146749632Y-105300000D01*
X147087500Y-105637868D01*
X147420938Y-105304430D01*
X147845199Y-105304430D01*
X147845199Y-105304431D01*
X147955312Y-105362223D01*
X148108575Y-105400000D01*
X148266425Y-105400000D01*
X148419685Y-105362224D01*
X148529799Y-105304430D01*
X148187501Y-104962132D01*
X148187500Y-104962132D01*
X147845199Y-105304430D01*
X147420938Y-105304430D01*
X147425368Y-105300000D01*
X147087500Y-104962132D01*
X146749632Y-105300000D01*
X146325369Y-105300000D01*
X145987501Y-104962132D01*
X145987500Y-104962132D01*
X145645199Y-105304430D01*
X139500500Y-105304430D01*
X139500500Y-104750000D01*
X145332726Y-104750000D01*
X145351753Y-104906699D01*
X145407722Y-105054283D01*
X145407725Y-105054288D01*
X145433596Y-105091770D01*
X145433597Y-105091770D01*
X145775368Y-104750000D01*
X145755477Y-104730109D01*
X145887500Y-104730109D01*
X145887500Y-104769891D01*
X145902724Y-104806645D01*
X145930855Y-104834776D01*
X145967609Y-104850000D01*
X146007391Y-104850000D01*
X146044145Y-104834776D01*
X146072276Y-104806645D01*
X146087500Y-104769891D01*
X146087500Y-104750000D01*
X146199632Y-104750000D01*
X146537500Y-105087868D01*
X146875368Y-104750000D01*
X146855477Y-104730109D01*
X146987500Y-104730109D01*
X146987500Y-104769891D01*
X147002724Y-104806645D01*
X147030855Y-104834776D01*
X147067609Y-104850000D01*
X147107391Y-104850000D01*
X147144145Y-104834776D01*
X147172276Y-104806645D01*
X147187500Y-104769891D01*
X147187500Y-104750000D01*
X147299632Y-104750000D01*
X147637500Y-105087868D01*
X147975368Y-104750000D01*
X147955477Y-104730109D01*
X148087500Y-104730109D01*
X148087500Y-104769891D01*
X148102724Y-104806645D01*
X148130855Y-104834776D01*
X148167609Y-104850000D01*
X148207391Y-104850000D01*
X148244145Y-104834776D01*
X148272276Y-104806645D01*
X148287500Y-104769891D01*
X148287500Y-104749999D01*
X148399632Y-104749999D01*
X148399632Y-104750001D01*
X148741401Y-105091770D01*
X148767273Y-105054290D01*
X148823247Y-104906697D01*
X148842273Y-104750000D01*
X148823247Y-104593302D01*
X148767273Y-104445709D01*
X148741401Y-104408229D01*
X148741401Y-104408228D01*
X148399632Y-104749999D01*
X148287500Y-104749999D01*
X148287500Y-104730109D01*
X148272276Y-104693355D01*
X148244145Y-104665224D01*
X148207391Y-104650000D01*
X148167609Y-104650000D01*
X148130855Y-104665224D01*
X148102724Y-104693355D01*
X148087500Y-104730109D01*
X147955477Y-104730109D01*
X147637500Y-104412132D01*
X147299632Y-104750000D01*
X147187500Y-104750000D01*
X147187500Y-104730109D01*
X147172276Y-104693355D01*
X147144145Y-104665224D01*
X147107391Y-104650000D01*
X147067609Y-104650000D01*
X147030855Y-104665224D01*
X147002724Y-104693355D01*
X146987500Y-104730109D01*
X146855477Y-104730109D01*
X146537500Y-104412132D01*
X146199632Y-104750000D01*
X146087500Y-104750000D01*
X146087500Y-104730109D01*
X146072276Y-104693355D01*
X146044145Y-104665224D01*
X146007391Y-104650000D01*
X145967609Y-104650000D01*
X145930855Y-104665224D01*
X145902724Y-104693355D01*
X145887500Y-104730109D01*
X145755477Y-104730109D01*
X145433596Y-104408228D01*
X145407727Y-104445707D01*
X145407724Y-104445713D01*
X145351753Y-104593301D01*
X145332726Y-104750000D01*
X139500500Y-104750000D01*
X139500500Y-104195568D01*
X145645200Y-104195568D01*
X145987500Y-104537868D01*
X145987501Y-104537868D01*
X146325366Y-104200000D01*
X146749632Y-104200000D01*
X147087500Y-104537868D01*
X147425368Y-104200000D01*
X147420936Y-104195568D01*
X147845200Y-104195568D01*
X148187500Y-104537868D01*
X148187501Y-104537868D01*
X148529799Y-104195567D01*
X148419683Y-104137775D01*
X148266425Y-104100000D01*
X148108575Y-104100000D01*
X147955315Y-104137775D01*
X147845200Y-104195568D01*
X147420936Y-104195568D01*
X147087500Y-103862132D01*
X146749632Y-104200000D01*
X146325366Y-104200000D01*
X146329799Y-104195567D01*
X146219683Y-104137775D01*
X146066425Y-104100000D01*
X145908575Y-104100000D01*
X145755315Y-104137775D01*
X145645200Y-104195568D01*
X139500500Y-104195568D01*
X139500500Y-103650000D01*
X146432726Y-103650000D01*
X146451753Y-103806699D01*
X146507722Y-103954283D01*
X146507725Y-103954288D01*
X146533596Y-103991770D01*
X146533597Y-103991770D01*
X146875368Y-103650000D01*
X146855477Y-103630109D01*
X146987500Y-103630109D01*
X146987500Y-103669891D01*
X147002724Y-103706645D01*
X147030855Y-103734776D01*
X147067609Y-103750000D01*
X147107391Y-103750000D01*
X147144145Y-103734776D01*
X147172276Y-103706645D01*
X147187500Y-103669891D01*
X147187500Y-103649999D01*
X147299632Y-103649999D01*
X147299632Y-103650001D01*
X147641401Y-103991770D01*
X147667273Y-103954290D01*
X147723247Y-103806697D01*
X147742273Y-103650000D01*
X147723247Y-103493302D01*
X147667273Y-103345709D01*
X147641401Y-103308229D01*
X147641401Y-103308228D01*
X147299632Y-103649999D01*
X147187500Y-103649999D01*
X147187500Y-103630109D01*
X147172276Y-103593355D01*
X147144145Y-103565224D01*
X147107391Y-103550000D01*
X147067609Y-103550000D01*
X147030855Y-103565224D01*
X147002724Y-103593355D01*
X146987500Y-103630109D01*
X146855477Y-103630109D01*
X146533596Y-103308228D01*
X146507727Y-103345707D01*
X146507724Y-103345713D01*
X146451753Y-103493301D01*
X146432726Y-103650000D01*
X139500500Y-103650000D01*
X139500500Y-103095568D01*
X146745200Y-103095568D01*
X147087500Y-103437868D01*
X147087501Y-103437868D01*
X147429799Y-103095567D01*
X147319683Y-103037775D01*
X147166425Y-103000000D01*
X147008575Y-103000000D01*
X146855315Y-103037775D01*
X146745200Y-103095568D01*
X139500500Y-103095568D01*
X139500500Y-95624500D01*
X139520185Y-95557461D01*
X139572989Y-95511706D01*
X139624500Y-95500500D01*
X155375500Y-95500500D01*
X155442539Y-95520185D01*
G37*
G04 #@! TD.AperFunction*
G04 #@! TD*
M02*
