%TF.GenerationSoftware,KiCad,Pcbnew,8.0.7*%
%TF.CreationDate,2025-01-11T12:37:20+01:00*%
%TF.ProjectId,NGCL,4e47434c-2e6b-4696-9361-645f70636258,rev?*%
%TF.SameCoordinates,Original*%
%TF.FileFunction,Drillmap*%
%TF.FilePolarity,Positive*%
%FSLAX45Y45*%
G04 Gerber Fmt 4.5, Leading zero omitted, Abs format (unit mm)*
G04 Created by KiCad (PCBNEW 8.0.7) date 2025-01-11 12:37:20*
%MOMM*%
%LPD*%
G01*
G04 APERTURE LIST*
%ADD10C,0.050000*%
%ADD11C,0.200000*%
G04 APERTURE END LIST*
D10*
X15600000Y-11100000D02*
X15600000Y-9500000D01*
X13900000Y-9500000D02*
X13900000Y-11100000D01*
X15600000Y-9500000D02*
X13900000Y-9500000D01*
X13900000Y-11100000D02*
X15600000Y-11100000D01*
D11*
X14158277Y-11413984D02*
X14158277Y-11213984D01*
X14158277Y-11213984D02*
X14205896Y-11213984D01*
X14205896Y-11213984D02*
X14234467Y-11223508D01*
X14234467Y-11223508D02*
X14253515Y-11242555D01*
X14253515Y-11242555D02*
X14263039Y-11261603D01*
X14263039Y-11261603D02*
X14272562Y-11299698D01*
X14272562Y-11299698D02*
X14272562Y-11328269D01*
X14272562Y-11328269D02*
X14263039Y-11366365D01*
X14263039Y-11366365D02*
X14253515Y-11385412D01*
X14253515Y-11385412D02*
X14234467Y-11404460D01*
X14234467Y-11404460D02*
X14205896Y-11413984D01*
X14205896Y-11413984D02*
X14158277Y-11413984D01*
X14358277Y-11413984D02*
X14358277Y-11280650D01*
X14358277Y-11318746D02*
X14367801Y-11299698D01*
X14367801Y-11299698D02*
X14377324Y-11290174D01*
X14377324Y-11290174D02*
X14396372Y-11280650D01*
X14396372Y-11280650D02*
X14415420Y-11280650D01*
X14482086Y-11413984D02*
X14482086Y-11280650D01*
X14482086Y-11213984D02*
X14472562Y-11223508D01*
X14472562Y-11223508D02*
X14482086Y-11233031D01*
X14482086Y-11233031D02*
X14491610Y-11223508D01*
X14491610Y-11223508D02*
X14482086Y-11213984D01*
X14482086Y-11213984D02*
X14482086Y-11233031D01*
X14605896Y-11413984D02*
X14586848Y-11404460D01*
X14586848Y-11404460D02*
X14577324Y-11385412D01*
X14577324Y-11385412D02*
X14577324Y-11213984D01*
X14710658Y-11413984D02*
X14691610Y-11404460D01*
X14691610Y-11404460D02*
X14682086Y-11385412D01*
X14682086Y-11385412D02*
X14682086Y-11213984D01*
X14939229Y-11413984D02*
X14939229Y-11213984D01*
X14939229Y-11213984D02*
X15005896Y-11356841D01*
X15005896Y-11356841D02*
X15072562Y-11213984D01*
X15072562Y-11213984D02*
X15072562Y-11413984D01*
X15253515Y-11413984D02*
X15253515Y-11309222D01*
X15253515Y-11309222D02*
X15243991Y-11290174D01*
X15243991Y-11290174D02*
X15224943Y-11280650D01*
X15224943Y-11280650D02*
X15186848Y-11280650D01*
X15186848Y-11280650D02*
X15167801Y-11290174D01*
X15253515Y-11404460D02*
X15234467Y-11413984D01*
X15234467Y-11413984D02*
X15186848Y-11413984D01*
X15186848Y-11413984D02*
X15167801Y-11404460D01*
X15167801Y-11404460D02*
X15158277Y-11385412D01*
X15158277Y-11385412D02*
X15158277Y-11366365D01*
X15158277Y-11366365D02*
X15167801Y-11347317D01*
X15167801Y-11347317D02*
X15186848Y-11337793D01*
X15186848Y-11337793D02*
X15234467Y-11337793D01*
X15234467Y-11337793D02*
X15253515Y-11328269D01*
X15348753Y-11280650D02*
X15348753Y-11480650D01*
X15348753Y-11290174D02*
X15367801Y-11280650D01*
X15367801Y-11280650D02*
X15405896Y-11280650D01*
X15405896Y-11280650D02*
X15424943Y-11290174D01*
X15424943Y-11290174D02*
X15434467Y-11299698D01*
X15434467Y-11299698D02*
X15443991Y-11318746D01*
X15443991Y-11318746D02*
X15443991Y-11375888D01*
X15443991Y-11375888D02*
X15434467Y-11394936D01*
X15434467Y-11394936D02*
X15424943Y-11404460D01*
X15424943Y-11404460D02*
X15405896Y-11413984D01*
X15405896Y-11413984D02*
X15367801Y-11413984D01*
X15367801Y-11413984D02*
X15348753Y-11404460D01*
X15529705Y-11394936D02*
X15539229Y-11404460D01*
X15539229Y-11404460D02*
X15529705Y-11413984D01*
X15529705Y-11413984D02*
X15520182Y-11404460D01*
X15520182Y-11404460D02*
X15529705Y-11394936D01*
X15529705Y-11394936D02*
X15529705Y-11413984D01*
X15529705Y-11290174D02*
X15539229Y-11299698D01*
X15539229Y-11299698D02*
X15529705Y-11309222D01*
X15529705Y-11309222D02*
X15520182Y-11299698D01*
X15520182Y-11299698D02*
X15529705Y-11290174D01*
X15529705Y-11290174D02*
X15529705Y-11309222D01*
M02*
