%TF.GenerationSoftware,KiCad,Pcbnew,8.0.7*%
%TF.CreationDate,2025-01-11T12:37:20+01:00*%
%TF.ProjectId,NGCL,4e47434c-2e6b-4696-9361-645f70636258,rev?*%
%TF.SameCoordinates,Original*%
%TF.FileFunction,Drillmap*%
%TF.FilePolarity,Positive*%
%FSLAX45Y45*%
G04 Gerber Fmt 4.5, Leading zero omitted, Abs format (unit mm)*
G04 Created by KiCad (PCBNEW 8.0.7) date 2025-01-11 12:37:20*
%MOMM*%
%LPD*%
G01*
G04 APERTURE LIST*
%ADD10C,0.050000*%
%ADD11C,0.200000*%
%ADD12C,0.100000*%
G04 APERTURE END LIST*
D10*
X15600000Y-11100000D02*
X15600000Y-9500000D01*
X13900000Y-9500000D02*
X13900000Y-11100000D01*
X15600000Y-9500000D02*
X13900000Y-9500000D01*
X13900000Y-11100000D02*
X15600000Y-11100000D01*
D11*
D12*
X14588750Y-10465000D02*
X14608750Y-10485000D01*
X14608750Y-10465000D02*
X14588750Y-10485000D01*
X14698750Y-10355000D02*
X14718750Y-10375000D01*
X14718750Y-10355000D02*
X14698750Y-10375000D01*
X14698750Y-10465000D02*
X14718750Y-10485000D01*
X14718750Y-10465000D02*
X14698750Y-10485000D01*
X14698750Y-10575000D02*
X14718750Y-10595000D01*
X14718750Y-10575000D02*
X14698750Y-10595000D01*
X14808750Y-10465000D02*
X14828750Y-10485000D01*
X14828750Y-10465000D02*
X14808750Y-10485000D01*
X14115000Y-9700000D02*
G75*
G02*
X14085000Y-9700000I-15000J0D01*
G01*
X14085000Y-9700000D02*
G75*
G02*
X14115000Y-9700000I15000J0D01*
G01*
X14355000Y-9800000D02*
G75*
G02*
X14325000Y-9800000I-15000J0D01*
G01*
X14325000Y-9800000D02*
G75*
G02*
X14355000Y-9800000I15000J0D01*
G01*
X14355000Y-10000000D02*
G75*
G02*
X14325000Y-10000000I-15000J0D01*
G01*
X14325000Y-10000000D02*
G75*
G02*
X14355000Y-10000000I15000J0D01*
G01*
D11*
X14158277Y-11413984D02*
X14158277Y-11213984D01*
X14158277Y-11213984D02*
X14205896Y-11213984D01*
X14205896Y-11213984D02*
X14234467Y-11223508D01*
X14234467Y-11223508D02*
X14253515Y-11242555D01*
X14253515Y-11242555D02*
X14263039Y-11261603D01*
X14263039Y-11261603D02*
X14272562Y-11299698D01*
X14272562Y-11299698D02*
X14272562Y-11328269D01*
X14272562Y-11328269D02*
X14263039Y-11366365D01*
X14263039Y-11366365D02*
X14253515Y-11385412D01*
X14253515Y-11385412D02*
X14234467Y-11404460D01*
X14234467Y-11404460D02*
X14205896Y-11413984D01*
X14205896Y-11413984D02*
X14158277Y-11413984D01*
X14358277Y-11413984D02*
X14358277Y-11280650D01*
X14358277Y-11318746D02*
X14367801Y-11299698D01*
X14367801Y-11299698D02*
X14377324Y-11290174D01*
X14377324Y-11290174D02*
X14396372Y-11280650D01*
X14396372Y-11280650D02*
X14415420Y-11280650D01*
X14482086Y-11413984D02*
X14482086Y-11280650D01*
X14482086Y-11213984D02*
X14472562Y-11223508D01*
X14472562Y-11223508D02*
X14482086Y-11233031D01*
X14482086Y-11233031D02*
X14491610Y-11223508D01*
X14491610Y-11223508D02*
X14482086Y-11213984D01*
X14482086Y-11213984D02*
X14482086Y-11233031D01*
X14605896Y-11413984D02*
X14586848Y-11404460D01*
X14586848Y-11404460D02*
X14577324Y-11385412D01*
X14577324Y-11385412D02*
X14577324Y-11213984D01*
X14710658Y-11413984D02*
X14691610Y-11404460D01*
X14691610Y-11404460D02*
X14682086Y-11385412D01*
X14682086Y-11385412D02*
X14682086Y-11213984D01*
X14939229Y-11413984D02*
X14939229Y-11213984D01*
X14939229Y-11213984D02*
X15005896Y-11356841D01*
X15005896Y-11356841D02*
X15072562Y-11213984D01*
X15072562Y-11213984D02*
X15072562Y-11413984D01*
X15253515Y-11413984D02*
X15253515Y-11309222D01*
X15253515Y-11309222D02*
X15243991Y-11290174D01*
X15243991Y-11290174D02*
X15224943Y-11280650D01*
X15224943Y-11280650D02*
X15186848Y-11280650D01*
X15186848Y-11280650D02*
X15167801Y-11290174D01*
X15253515Y-11404460D02*
X15234467Y-11413984D01*
X15234467Y-11413984D02*
X15186848Y-11413984D01*
X15186848Y-11413984D02*
X15167801Y-11404460D01*
X15167801Y-11404460D02*
X15158277Y-11385412D01*
X15158277Y-11385412D02*
X15158277Y-11366365D01*
X15158277Y-11366365D02*
X15167801Y-11347317D01*
X15167801Y-11347317D02*
X15186848Y-11337793D01*
X15186848Y-11337793D02*
X15234467Y-11337793D01*
X15234467Y-11337793D02*
X15253515Y-11328269D01*
X15348753Y-11280650D02*
X15348753Y-11480650D01*
X15348753Y-11290174D02*
X15367801Y-11280650D01*
X15367801Y-11280650D02*
X15405896Y-11280650D01*
X15405896Y-11280650D02*
X15424943Y-11290174D01*
X15424943Y-11290174D02*
X15434467Y-11299698D01*
X15434467Y-11299698D02*
X15443991Y-11318746D01*
X15443991Y-11318746D02*
X15443991Y-11375888D01*
X15443991Y-11375888D02*
X15434467Y-11394936D01*
X15434467Y-11394936D02*
X15424943Y-11404460D01*
X15424943Y-11404460D02*
X15405896Y-11413984D01*
X15405896Y-11413984D02*
X15367801Y-11413984D01*
X15367801Y-11413984D02*
X15348753Y-11404460D01*
X15529705Y-11394936D02*
X15539229Y-11404460D01*
X15539229Y-11404460D02*
X15529705Y-11413984D01*
X15529705Y-11413984D02*
X15520182Y-11404460D01*
X15520182Y-11404460D02*
X15529705Y-11394936D01*
X15529705Y-11394936D02*
X15529705Y-11413984D01*
X15529705Y-11290174D02*
X15539229Y-11299698D01*
X15539229Y-11299698D02*
X15529705Y-11309222D01*
X15529705Y-11309222D02*
X15520182Y-11299698D01*
X15520182Y-11299698D02*
X15529705Y-11290174D01*
X15529705Y-11290174D02*
X15529705Y-11309222D01*
D12*
X13877500Y-11732500D02*
X13897500Y-11752500D01*
X13897500Y-11732500D02*
X13877500Y-11752500D01*
D11*
X14196372Y-11633984D02*
X14215420Y-11633984D01*
X14215420Y-11633984D02*
X14234467Y-11643508D01*
X14234467Y-11643508D02*
X14243991Y-11653031D01*
X14243991Y-11653031D02*
X14253515Y-11672079D01*
X14253515Y-11672079D02*
X14263039Y-11710174D01*
X14263039Y-11710174D02*
X14263039Y-11757793D01*
X14263039Y-11757793D02*
X14253515Y-11795888D01*
X14253515Y-11795888D02*
X14243991Y-11814936D01*
X14243991Y-11814936D02*
X14234467Y-11824460D01*
X14234467Y-11824460D02*
X14215420Y-11833984D01*
X14215420Y-11833984D02*
X14196372Y-11833984D01*
X14196372Y-11833984D02*
X14177324Y-11824460D01*
X14177324Y-11824460D02*
X14167801Y-11814936D01*
X14167801Y-11814936D02*
X14158277Y-11795888D01*
X14158277Y-11795888D02*
X14148753Y-11757793D01*
X14148753Y-11757793D02*
X14148753Y-11710174D01*
X14148753Y-11710174D02*
X14158277Y-11672079D01*
X14158277Y-11672079D02*
X14167801Y-11653031D01*
X14167801Y-11653031D02*
X14177324Y-11643508D01*
X14177324Y-11643508D02*
X14196372Y-11633984D01*
X14348753Y-11814936D02*
X14358277Y-11824460D01*
X14358277Y-11824460D02*
X14348753Y-11833984D01*
X14348753Y-11833984D02*
X14339229Y-11824460D01*
X14339229Y-11824460D02*
X14348753Y-11814936D01*
X14348753Y-11814936D02*
X14348753Y-11833984D01*
X14434467Y-11653031D02*
X14443991Y-11643508D01*
X14443991Y-11643508D02*
X14463039Y-11633984D01*
X14463039Y-11633984D02*
X14510658Y-11633984D01*
X14510658Y-11633984D02*
X14529705Y-11643508D01*
X14529705Y-11643508D02*
X14539229Y-11653031D01*
X14539229Y-11653031D02*
X14548753Y-11672079D01*
X14548753Y-11672079D02*
X14548753Y-11691127D01*
X14548753Y-11691127D02*
X14539229Y-11719698D01*
X14539229Y-11719698D02*
X14424943Y-11833984D01*
X14424943Y-11833984D02*
X14548753Y-11833984D01*
X14672562Y-11633984D02*
X14691610Y-11633984D01*
X14691610Y-11633984D02*
X14710658Y-11643508D01*
X14710658Y-11643508D02*
X14720182Y-11653031D01*
X14720182Y-11653031D02*
X14729705Y-11672079D01*
X14729705Y-11672079D02*
X14739229Y-11710174D01*
X14739229Y-11710174D02*
X14739229Y-11757793D01*
X14739229Y-11757793D02*
X14729705Y-11795888D01*
X14729705Y-11795888D02*
X14720182Y-11814936D01*
X14720182Y-11814936D02*
X14710658Y-11824460D01*
X14710658Y-11824460D02*
X14691610Y-11833984D01*
X14691610Y-11833984D02*
X14672562Y-11833984D01*
X14672562Y-11833984D02*
X14653515Y-11824460D01*
X14653515Y-11824460D02*
X14643991Y-11814936D01*
X14643991Y-11814936D02*
X14634467Y-11795888D01*
X14634467Y-11795888D02*
X14624943Y-11757793D01*
X14624943Y-11757793D02*
X14624943Y-11710174D01*
X14624943Y-11710174D02*
X14634467Y-11672079D01*
X14634467Y-11672079D02*
X14643991Y-11653031D01*
X14643991Y-11653031D02*
X14653515Y-11643508D01*
X14653515Y-11643508D02*
X14672562Y-11633984D01*
X14863039Y-11633984D02*
X14882086Y-11633984D01*
X14882086Y-11633984D02*
X14901134Y-11643508D01*
X14901134Y-11643508D02*
X14910658Y-11653031D01*
X14910658Y-11653031D02*
X14920182Y-11672079D01*
X14920182Y-11672079D02*
X14929705Y-11710174D01*
X14929705Y-11710174D02*
X14929705Y-11757793D01*
X14929705Y-11757793D02*
X14920182Y-11795888D01*
X14920182Y-11795888D02*
X14910658Y-11814936D01*
X14910658Y-11814936D02*
X14901134Y-11824460D01*
X14901134Y-11824460D02*
X14882086Y-11833984D01*
X14882086Y-11833984D02*
X14863039Y-11833984D01*
X14863039Y-11833984D02*
X14843991Y-11824460D01*
X14843991Y-11824460D02*
X14834467Y-11814936D01*
X14834467Y-11814936D02*
X14824943Y-11795888D01*
X14824943Y-11795888D02*
X14815420Y-11757793D01*
X14815420Y-11757793D02*
X14815420Y-11710174D01*
X14815420Y-11710174D02*
X14824943Y-11672079D01*
X14824943Y-11672079D02*
X14834467Y-11653031D01*
X14834467Y-11653031D02*
X14843991Y-11643508D01*
X14843991Y-11643508D02*
X14863039Y-11633984D01*
X15015420Y-11833984D02*
X15015420Y-11700650D01*
X15015420Y-11719698D02*
X15024943Y-11710174D01*
X15024943Y-11710174D02*
X15043991Y-11700650D01*
X15043991Y-11700650D02*
X15072563Y-11700650D01*
X15072563Y-11700650D02*
X15091610Y-11710174D01*
X15091610Y-11710174D02*
X15101134Y-11729222D01*
X15101134Y-11729222D02*
X15101134Y-11833984D01*
X15101134Y-11729222D02*
X15110658Y-11710174D01*
X15110658Y-11710174D02*
X15129705Y-11700650D01*
X15129705Y-11700650D02*
X15158277Y-11700650D01*
X15158277Y-11700650D02*
X15177324Y-11710174D01*
X15177324Y-11710174D02*
X15186848Y-11729222D01*
X15186848Y-11729222D02*
X15186848Y-11833984D01*
X15282086Y-11833984D02*
X15282086Y-11700650D01*
X15282086Y-11719698D02*
X15291610Y-11710174D01*
X15291610Y-11710174D02*
X15310658Y-11700650D01*
X15310658Y-11700650D02*
X15339229Y-11700650D01*
X15339229Y-11700650D02*
X15358277Y-11710174D01*
X15358277Y-11710174D02*
X15367801Y-11729222D01*
X15367801Y-11729222D02*
X15367801Y-11833984D01*
X15367801Y-11729222D02*
X15377324Y-11710174D01*
X15377324Y-11710174D02*
X15396372Y-11700650D01*
X15396372Y-11700650D02*
X15424943Y-11700650D01*
X15424943Y-11700650D02*
X15443991Y-11710174D01*
X15443991Y-11710174D02*
X15453515Y-11729222D01*
X15453515Y-11729222D02*
X15453515Y-11833984D01*
X15843991Y-11624460D02*
X15672563Y-11881603D01*
X16101134Y-11633984D02*
X16120182Y-11633984D01*
X16120182Y-11633984D02*
X16139229Y-11643508D01*
X16139229Y-11643508D02*
X16148753Y-11653031D01*
X16148753Y-11653031D02*
X16158277Y-11672079D01*
X16158277Y-11672079D02*
X16167801Y-11710174D01*
X16167801Y-11710174D02*
X16167801Y-11757793D01*
X16167801Y-11757793D02*
X16158277Y-11795888D01*
X16158277Y-11795888D02*
X16148753Y-11814936D01*
X16148753Y-11814936D02*
X16139229Y-11824460D01*
X16139229Y-11824460D02*
X16120182Y-11833984D01*
X16120182Y-11833984D02*
X16101134Y-11833984D01*
X16101134Y-11833984D02*
X16082086Y-11824460D01*
X16082086Y-11824460D02*
X16072563Y-11814936D01*
X16072563Y-11814936D02*
X16063039Y-11795888D01*
X16063039Y-11795888D02*
X16053515Y-11757793D01*
X16053515Y-11757793D02*
X16053515Y-11710174D01*
X16053515Y-11710174D02*
X16063039Y-11672079D01*
X16063039Y-11672079D02*
X16072563Y-11653031D01*
X16072563Y-11653031D02*
X16082086Y-11643508D01*
X16082086Y-11643508D02*
X16101134Y-11633984D01*
X16253515Y-11814936D02*
X16263039Y-11824460D01*
X16263039Y-11824460D02*
X16253515Y-11833984D01*
X16253515Y-11833984D02*
X16243991Y-11824460D01*
X16243991Y-11824460D02*
X16253515Y-11814936D01*
X16253515Y-11814936D02*
X16253515Y-11833984D01*
X16386848Y-11633984D02*
X16405896Y-11633984D01*
X16405896Y-11633984D02*
X16424944Y-11643508D01*
X16424944Y-11643508D02*
X16434467Y-11653031D01*
X16434467Y-11653031D02*
X16443991Y-11672079D01*
X16443991Y-11672079D02*
X16453515Y-11710174D01*
X16453515Y-11710174D02*
X16453515Y-11757793D01*
X16453515Y-11757793D02*
X16443991Y-11795888D01*
X16443991Y-11795888D02*
X16434467Y-11814936D01*
X16434467Y-11814936D02*
X16424944Y-11824460D01*
X16424944Y-11824460D02*
X16405896Y-11833984D01*
X16405896Y-11833984D02*
X16386848Y-11833984D01*
X16386848Y-11833984D02*
X16367801Y-11824460D01*
X16367801Y-11824460D02*
X16358277Y-11814936D01*
X16358277Y-11814936D02*
X16348753Y-11795888D01*
X16348753Y-11795888D02*
X16339229Y-11757793D01*
X16339229Y-11757793D02*
X16339229Y-11710174D01*
X16339229Y-11710174D02*
X16348753Y-11672079D01*
X16348753Y-11672079D02*
X16358277Y-11653031D01*
X16358277Y-11653031D02*
X16367801Y-11643508D01*
X16367801Y-11643508D02*
X16386848Y-11633984D01*
X16577325Y-11633984D02*
X16596372Y-11633984D01*
X16596372Y-11633984D02*
X16615420Y-11643508D01*
X16615420Y-11643508D02*
X16624944Y-11653031D01*
X16624944Y-11653031D02*
X16634467Y-11672079D01*
X16634467Y-11672079D02*
X16643991Y-11710174D01*
X16643991Y-11710174D02*
X16643991Y-11757793D01*
X16643991Y-11757793D02*
X16634467Y-11795888D01*
X16634467Y-11795888D02*
X16624944Y-11814936D01*
X16624944Y-11814936D02*
X16615420Y-11824460D01*
X16615420Y-11824460D02*
X16596372Y-11833984D01*
X16596372Y-11833984D02*
X16577325Y-11833984D01*
X16577325Y-11833984D02*
X16558277Y-11824460D01*
X16558277Y-11824460D02*
X16548753Y-11814936D01*
X16548753Y-11814936D02*
X16539229Y-11795888D01*
X16539229Y-11795888D02*
X16529706Y-11757793D01*
X16529706Y-11757793D02*
X16529706Y-11710174D01*
X16529706Y-11710174D02*
X16539229Y-11672079D01*
X16539229Y-11672079D02*
X16548753Y-11653031D01*
X16548753Y-11653031D02*
X16558277Y-11643508D01*
X16558277Y-11643508D02*
X16577325Y-11633984D01*
X16710658Y-11633984D02*
X16843991Y-11633984D01*
X16843991Y-11633984D02*
X16758277Y-11833984D01*
X16929706Y-11833984D02*
X16967801Y-11833984D01*
X16967801Y-11833984D02*
X16986849Y-11824460D01*
X16986849Y-11824460D02*
X16996372Y-11814936D01*
X16996372Y-11814936D02*
X17015420Y-11786365D01*
X17015420Y-11786365D02*
X17024944Y-11748269D01*
X17024944Y-11748269D02*
X17024944Y-11672079D01*
X17024944Y-11672079D02*
X17015420Y-11653031D01*
X17015420Y-11653031D02*
X17005896Y-11643508D01*
X17005896Y-11643508D02*
X16986849Y-11633984D01*
X16986849Y-11633984D02*
X16948753Y-11633984D01*
X16948753Y-11633984D02*
X16929706Y-11643508D01*
X16929706Y-11643508D02*
X16920182Y-11653031D01*
X16920182Y-11653031D02*
X16910658Y-11672079D01*
X16910658Y-11672079D02*
X16910658Y-11719698D01*
X16910658Y-11719698D02*
X16920182Y-11738746D01*
X16920182Y-11738746D02*
X16929706Y-11748269D01*
X16929706Y-11748269D02*
X16948753Y-11757793D01*
X16948753Y-11757793D02*
X16986849Y-11757793D01*
X16986849Y-11757793D02*
X17005896Y-11748269D01*
X17005896Y-11748269D02*
X17015420Y-11738746D01*
X17015420Y-11738746D02*
X17024944Y-11719698D01*
X17101134Y-11633984D02*
X17101134Y-11672079D01*
X17177325Y-11633984D02*
X17177325Y-11672079D01*
X17472563Y-11910174D02*
X17463039Y-11900650D01*
X17463039Y-11900650D02*
X17443991Y-11872079D01*
X17443991Y-11872079D02*
X17434468Y-11853031D01*
X17434468Y-11853031D02*
X17424944Y-11824460D01*
X17424944Y-11824460D02*
X17415420Y-11776841D01*
X17415420Y-11776841D02*
X17415420Y-11738746D01*
X17415420Y-11738746D02*
X17424944Y-11691127D01*
X17424944Y-11691127D02*
X17434468Y-11662555D01*
X17434468Y-11662555D02*
X17443991Y-11643508D01*
X17443991Y-11643508D02*
X17463039Y-11614936D01*
X17463039Y-11614936D02*
X17472563Y-11605412D01*
X17643991Y-11633984D02*
X17548753Y-11633984D01*
X17548753Y-11633984D02*
X17539230Y-11729222D01*
X17539230Y-11729222D02*
X17548753Y-11719698D01*
X17548753Y-11719698D02*
X17567801Y-11710174D01*
X17567801Y-11710174D02*
X17615420Y-11710174D01*
X17615420Y-11710174D02*
X17634468Y-11719698D01*
X17634468Y-11719698D02*
X17643991Y-11729222D01*
X17643991Y-11729222D02*
X17653515Y-11748269D01*
X17653515Y-11748269D02*
X17653515Y-11795888D01*
X17653515Y-11795888D02*
X17643991Y-11814936D01*
X17643991Y-11814936D02*
X17634468Y-11824460D01*
X17634468Y-11824460D02*
X17615420Y-11833984D01*
X17615420Y-11833984D02*
X17567801Y-11833984D01*
X17567801Y-11833984D02*
X17548753Y-11824460D01*
X17548753Y-11824460D02*
X17539230Y-11814936D01*
X17891611Y-11833984D02*
X17891611Y-11633984D01*
X17977325Y-11833984D02*
X17977325Y-11729222D01*
X17977325Y-11729222D02*
X17967801Y-11710174D01*
X17967801Y-11710174D02*
X17948753Y-11700650D01*
X17948753Y-11700650D02*
X17920182Y-11700650D01*
X17920182Y-11700650D02*
X17901134Y-11710174D01*
X17901134Y-11710174D02*
X17891611Y-11719698D01*
X18101134Y-11833984D02*
X18082087Y-11824460D01*
X18082087Y-11824460D02*
X18072563Y-11814936D01*
X18072563Y-11814936D02*
X18063039Y-11795888D01*
X18063039Y-11795888D02*
X18063039Y-11738746D01*
X18063039Y-11738746D02*
X18072563Y-11719698D01*
X18072563Y-11719698D02*
X18082087Y-11710174D01*
X18082087Y-11710174D02*
X18101134Y-11700650D01*
X18101134Y-11700650D02*
X18129706Y-11700650D01*
X18129706Y-11700650D02*
X18148753Y-11710174D01*
X18148753Y-11710174D02*
X18158277Y-11719698D01*
X18158277Y-11719698D02*
X18167801Y-11738746D01*
X18167801Y-11738746D02*
X18167801Y-11795888D01*
X18167801Y-11795888D02*
X18158277Y-11814936D01*
X18158277Y-11814936D02*
X18148753Y-11824460D01*
X18148753Y-11824460D02*
X18129706Y-11833984D01*
X18129706Y-11833984D02*
X18101134Y-11833984D01*
X18282087Y-11833984D02*
X18263039Y-11824460D01*
X18263039Y-11824460D02*
X18253515Y-11805412D01*
X18253515Y-11805412D02*
X18253515Y-11633984D01*
X18434468Y-11824460D02*
X18415420Y-11833984D01*
X18415420Y-11833984D02*
X18377325Y-11833984D01*
X18377325Y-11833984D02*
X18358277Y-11824460D01*
X18358277Y-11824460D02*
X18348753Y-11805412D01*
X18348753Y-11805412D02*
X18348753Y-11729222D01*
X18348753Y-11729222D02*
X18358277Y-11710174D01*
X18358277Y-11710174D02*
X18377325Y-11700650D01*
X18377325Y-11700650D02*
X18415420Y-11700650D01*
X18415420Y-11700650D02*
X18434468Y-11710174D01*
X18434468Y-11710174D02*
X18443992Y-11729222D01*
X18443992Y-11729222D02*
X18443992Y-11748269D01*
X18443992Y-11748269D02*
X18348753Y-11767317D01*
X18520182Y-11824460D02*
X18539230Y-11833984D01*
X18539230Y-11833984D02*
X18577325Y-11833984D01*
X18577325Y-11833984D02*
X18596373Y-11824460D01*
X18596373Y-11824460D02*
X18605896Y-11805412D01*
X18605896Y-11805412D02*
X18605896Y-11795888D01*
X18605896Y-11795888D02*
X18596373Y-11776841D01*
X18596373Y-11776841D02*
X18577325Y-11767317D01*
X18577325Y-11767317D02*
X18548753Y-11767317D01*
X18548753Y-11767317D02*
X18529706Y-11757793D01*
X18529706Y-11757793D02*
X18520182Y-11738746D01*
X18520182Y-11738746D02*
X18520182Y-11729222D01*
X18520182Y-11729222D02*
X18529706Y-11710174D01*
X18529706Y-11710174D02*
X18548753Y-11700650D01*
X18548753Y-11700650D02*
X18577325Y-11700650D01*
X18577325Y-11700650D02*
X18596373Y-11710174D01*
X18672563Y-11910174D02*
X18682087Y-11900650D01*
X18682087Y-11900650D02*
X18701134Y-11872079D01*
X18701134Y-11872079D02*
X18710658Y-11853031D01*
X18710658Y-11853031D02*
X18720182Y-11824460D01*
X18720182Y-11824460D02*
X18729706Y-11776841D01*
X18729706Y-11776841D02*
X18729706Y-11738746D01*
X18729706Y-11738746D02*
X18720182Y-11691127D01*
X18720182Y-11691127D02*
X18710658Y-11662555D01*
X18710658Y-11662555D02*
X18701134Y-11643508D01*
X18701134Y-11643508D02*
X18682087Y-11614936D01*
X18682087Y-11614936D02*
X18672563Y-11605412D01*
D12*
X13897500Y-12006500D02*
G75*
G02*
X13867500Y-12006500I-15000J0D01*
G01*
X13867500Y-12006500D02*
G75*
G02*
X13897500Y-12006500I15000J0D01*
G01*
D11*
X14196372Y-11897984D02*
X14215420Y-11897984D01*
X14215420Y-11897984D02*
X14234467Y-11907508D01*
X14234467Y-11907508D02*
X14243991Y-11917031D01*
X14243991Y-11917031D02*
X14253515Y-11936079D01*
X14253515Y-11936079D02*
X14263039Y-11974174D01*
X14263039Y-11974174D02*
X14263039Y-12021793D01*
X14263039Y-12021793D02*
X14253515Y-12059888D01*
X14253515Y-12059888D02*
X14243991Y-12078936D01*
X14243991Y-12078936D02*
X14234467Y-12088460D01*
X14234467Y-12088460D02*
X14215420Y-12097984D01*
X14215420Y-12097984D02*
X14196372Y-12097984D01*
X14196372Y-12097984D02*
X14177324Y-12088460D01*
X14177324Y-12088460D02*
X14167801Y-12078936D01*
X14167801Y-12078936D02*
X14158277Y-12059888D01*
X14158277Y-12059888D02*
X14148753Y-12021793D01*
X14148753Y-12021793D02*
X14148753Y-11974174D01*
X14148753Y-11974174D02*
X14158277Y-11936079D01*
X14158277Y-11936079D02*
X14167801Y-11917031D01*
X14167801Y-11917031D02*
X14177324Y-11907508D01*
X14177324Y-11907508D02*
X14196372Y-11897984D01*
X14348753Y-12078936D02*
X14358277Y-12088460D01*
X14358277Y-12088460D02*
X14348753Y-12097984D01*
X14348753Y-12097984D02*
X14339229Y-12088460D01*
X14339229Y-12088460D02*
X14348753Y-12078936D01*
X14348753Y-12078936D02*
X14348753Y-12097984D01*
X14424943Y-11897984D02*
X14548753Y-11897984D01*
X14548753Y-11897984D02*
X14482086Y-11974174D01*
X14482086Y-11974174D02*
X14510658Y-11974174D01*
X14510658Y-11974174D02*
X14529705Y-11983698D01*
X14529705Y-11983698D02*
X14539229Y-11993222D01*
X14539229Y-11993222D02*
X14548753Y-12012269D01*
X14548753Y-12012269D02*
X14548753Y-12059888D01*
X14548753Y-12059888D02*
X14539229Y-12078936D01*
X14539229Y-12078936D02*
X14529705Y-12088460D01*
X14529705Y-12088460D02*
X14510658Y-12097984D01*
X14510658Y-12097984D02*
X14453515Y-12097984D01*
X14453515Y-12097984D02*
X14434467Y-12088460D01*
X14434467Y-12088460D02*
X14424943Y-12078936D01*
X14672562Y-11897984D02*
X14691610Y-11897984D01*
X14691610Y-11897984D02*
X14710658Y-11907508D01*
X14710658Y-11907508D02*
X14720182Y-11917031D01*
X14720182Y-11917031D02*
X14729705Y-11936079D01*
X14729705Y-11936079D02*
X14739229Y-11974174D01*
X14739229Y-11974174D02*
X14739229Y-12021793D01*
X14739229Y-12021793D02*
X14729705Y-12059888D01*
X14729705Y-12059888D02*
X14720182Y-12078936D01*
X14720182Y-12078936D02*
X14710658Y-12088460D01*
X14710658Y-12088460D02*
X14691610Y-12097984D01*
X14691610Y-12097984D02*
X14672562Y-12097984D01*
X14672562Y-12097984D02*
X14653515Y-12088460D01*
X14653515Y-12088460D02*
X14643991Y-12078936D01*
X14643991Y-12078936D02*
X14634467Y-12059888D01*
X14634467Y-12059888D02*
X14624943Y-12021793D01*
X14624943Y-12021793D02*
X14624943Y-11974174D01*
X14624943Y-11974174D02*
X14634467Y-11936079D01*
X14634467Y-11936079D02*
X14643991Y-11917031D01*
X14643991Y-11917031D02*
X14653515Y-11907508D01*
X14653515Y-11907508D02*
X14672562Y-11897984D01*
X14863039Y-11897984D02*
X14882086Y-11897984D01*
X14882086Y-11897984D02*
X14901134Y-11907508D01*
X14901134Y-11907508D02*
X14910658Y-11917031D01*
X14910658Y-11917031D02*
X14920182Y-11936079D01*
X14920182Y-11936079D02*
X14929705Y-11974174D01*
X14929705Y-11974174D02*
X14929705Y-12021793D01*
X14929705Y-12021793D02*
X14920182Y-12059888D01*
X14920182Y-12059888D02*
X14910658Y-12078936D01*
X14910658Y-12078936D02*
X14901134Y-12088460D01*
X14901134Y-12088460D02*
X14882086Y-12097984D01*
X14882086Y-12097984D02*
X14863039Y-12097984D01*
X14863039Y-12097984D02*
X14843991Y-12088460D01*
X14843991Y-12088460D02*
X14834467Y-12078936D01*
X14834467Y-12078936D02*
X14824943Y-12059888D01*
X14824943Y-12059888D02*
X14815420Y-12021793D01*
X14815420Y-12021793D02*
X14815420Y-11974174D01*
X14815420Y-11974174D02*
X14824943Y-11936079D01*
X14824943Y-11936079D02*
X14834467Y-11917031D01*
X14834467Y-11917031D02*
X14843991Y-11907508D01*
X14843991Y-11907508D02*
X14863039Y-11897984D01*
X15015420Y-12097984D02*
X15015420Y-11964650D01*
X15015420Y-11983698D02*
X15024943Y-11974174D01*
X15024943Y-11974174D02*
X15043991Y-11964650D01*
X15043991Y-11964650D02*
X15072563Y-11964650D01*
X15072563Y-11964650D02*
X15091610Y-11974174D01*
X15091610Y-11974174D02*
X15101134Y-11993222D01*
X15101134Y-11993222D02*
X15101134Y-12097984D01*
X15101134Y-11993222D02*
X15110658Y-11974174D01*
X15110658Y-11974174D02*
X15129705Y-11964650D01*
X15129705Y-11964650D02*
X15158277Y-11964650D01*
X15158277Y-11964650D02*
X15177324Y-11974174D01*
X15177324Y-11974174D02*
X15186848Y-11993222D01*
X15186848Y-11993222D02*
X15186848Y-12097984D01*
X15282086Y-12097984D02*
X15282086Y-11964650D01*
X15282086Y-11983698D02*
X15291610Y-11974174D01*
X15291610Y-11974174D02*
X15310658Y-11964650D01*
X15310658Y-11964650D02*
X15339229Y-11964650D01*
X15339229Y-11964650D02*
X15358277Y-11974174D01*
X15358277Y-11974174D02*
X15367801Y-11993222D01*
X15367801Y-11993222D02*
X15367801Y-12097984D01*
X15367801Y-11993222D02*
X15377324Y-11974174D01*
X15377324Y-11974174D02*
X15396372Y-11964650D01*
X15396372Y-11964650D02*
X15424943Y-11964650D01*
X15424943Y-11964650D02*
X15443991Y-11974174D01*
X15443991Y-11974174D02*
X15453515Y-11993222D01*
X15453515Y-11993222D02*
X15453515Y-12097984D01*
X15843991Y-11888460D02*
X15672563Y-12145603D01*
X16101134Y-11897984D02*
X16120182Y-11897984D01*
X16120182Y-11897984D02*
X16139229Y-11907508D01*
X16139229Y-11907508D02*
X16148753Y-11917031D01*
X16148753Y-11917031D02*
X16158277Y-11936079D01*
X16158277Y-11936079D02*
X16167801Y-11974174D01*
X16167801Y-11974174D02*
X16167801Y-12021793D01*
X16167801Y-12021793D02*
X16158277Y-12059888D01*
X16158277Y-12059888D02*
X16148753Y-12078936D01*
X16148753Y-12078936D02*
X16139229Y-12088460D01*
X16139229Y-12088460D02*
X16120182Y-12097984D01*
X16120182Y-12097984D02*
X16101134Y-12097984D01*
X16101134Y-12097984D02*
X16082086Y-12088460D01*
X16082086Y-12088460D02*
X16072563Y-12078936D01*
X16072563Y-12078936D02*
X16063039Y-12059888D01*
X16063039Y-12059888D02*
X16053515Y-12021793D01*
X16053515Y-12021793D02*
X16053515Y-11974174D01*
X16053515Y-11974174D02*
X16063039Y-11936079D01*
X16063039Y-11936079D02*
X16072563Y-11917031D01*
X16072563Y-11917031D02*
X16082086Y-11907508D01*
X16082086Y-11907508D02*
X16101134Y-11897984D01*
X16253515Y-12078936D02*
X16263039Y-12088460D01*
X16263039Y-12088460D02*
X16253515Y-12097984D01*
X16253515Y-12097984D02*
X16243991Y-12088460D01*
X16243991Y-12088460D02*
X16253515Y-12078936D01*
X16253515Y-12078936D02*
X16253515Y-12097984D01*
X16386848Y-11897984D02*
X16405896Y-11897984D01*
X16405896Y-11897984D02*
X16424944Y-11907508D01*
X16424944Y-11907508D02*
X16434467Y-11917031D01*
X16434467Y-11917031D02*
X16443991Y-11936079D01*
X16443991Y-11936079D02*
X16453515Y-11974174D01*
X16453515Y-11974174D02*
X16453515Y-12021793D01*
X16453515Y-12021793D02*
X16443991Y-12059888D01*
X16443991Y-12059888D02*
X16434467Y-12078936D01*
X16434467Y-12078936D02*
X16424944Y-12088460D01*
X16424944Y-12088460D02*
X16405896Y-12097984D01*
X16405896Y-12097984D02*
X16386848Y-12097984D01*
X16386848Y-12097984D02*
X16367801Y-12088460D01*
X16367801Y-12088460D02*
X16358277Y-12078936D01*
X16358277Y-12078936D02*
X16348753Y-12059888D01*
X16348753Y-12059888D02*
X16339229Y-12021793D01*
X16339229Y-12021793D02*
X16339229Y-11974174D01*
X16339229Y-11974174D02*
X16348753Y-11936079D01*
X16348753Y-11936079D02*
X16358277Y-11917031D01*
X16358277Y-11917031D02*
X16367801Y-11907508D01*
X16367801Y-11907508D02*
X16386848Y-11897984D01*
X16643991Y-12097984D02*
X16529706Y-12097984D01*
X16586848Y-12097984D02*
X16586848Y-11897984D01*
X16586848Y-11897984D02*
X16567801Y-11926555D01*
X16567801Y-11926555D02*
X16548753Y-11945603D01*
X16548753Y-11945603D02*
X16529706Y-11955127D01*
X16834468Y-12097984D02*
X16720182Y-12097984D01*
X16777325Y-12097984D02*
X16777325Y-11897984D01*
X16777325Y-11897984D02*
X16758277Y-11926555D01*
X16758277Y-11926555D02*
X16739229Y-11945603D01*
X16739229Y-11945603D02*
X16720182Y-11955127D01*
X16948753Y-11983698D02*
X16929706Y-11974174D01*
X16929706Y-11974174D02*
X16920182Y-11964650D01*
X16920182Y-11964650D02*
X16910658Y-11945603D01*
X16910658Y-11945603D02*
X16910658Y-11936079D01*
X16910658Y-11936079D02*
X16920182Y-11917031D01*
X16920182Y-11917031D02*
X16929706Y-11907508D01*
X16929706Y-11907508D02*
X16948753Y-11897984D01*
X16948753Y-11897984D02*
X16986849Y-11897984D01*
X16986849Y-11897984D02*
X17005896Y-11907508D01*
X17005896Y-11907508D02*
X17015420Y-11917031D01*
X17015420Y-11917031D02*
X17024944Y-11936079D01*
X17024944Y-11936079D02*
X17024944Y-11945603D01*
X17024944Y-11945603D02*
X17015420Y-11964650D01*
X17015420Y-11964650D02*
X17005896Y-11974174D01*
X17005896Y-11974174D02*
X16986849Y-11983698D01*
X16986849Y-11983698D02*
X16948753Y-11983698D01*
X16948753Y-11983698D02*
X16929706Y-11993222D01*
X16929706Y-11993222D02*
X16920182Y-12002746D01*
X16920182Y-12002746D02*
X16910658Y-12021793D01*
X16910658Y-12021793D02*
X16910658Y-12059888D01*
X16910658Y-12059888D02*
X16920182Y-12078936D01*
X16920182Y-12078936D02*
X16929706Y-12088460D01*
X16929706Y-12088460D02*
X16948753Y-12097984D01*
X16948753Y-12097984D02*
X16986849Y-12097984D01*
X16986849Y-12097984D02*
X17005896Y-12088460D01*
X17005896Y-12088460D02*
X17015420Y-12078936D01*
X17015420Y-12078936D02*
X17024944Y-12059888D01*
X17024944Y-12059888D02*
X17024944Y-12021793D01*
X17024944Y-12021793D02*
X17015420Y-12002746D01*
X17015420Y-12002746D02*
X17005896Y-11993222D01*
X17005896Y-11993222D02*
X16986849Y-11983698D01*
X17101134Y-11897984D02*
X17101134Y-11936079D01*
X17177325Y-11897984D02*
X17177325Y-11936079D01*
X17472563Y-12174174D02*
X17463039Y-12164650D01*
X17463039Y-12164650D02*
X17443991Y-12136079D01*
X17443991Y-12136079D02*
X17434468Y-12117031D01*
X17434468Y-12117031D02*
X17424944Y-12088460D01*
X17424944Y-12088460D02*
X17415420Y-12040841D01*
X17415420Y-12040841D02*
X17415420Y-12002746D01*
X17415420Y-12002746D02*
X17424944Y-11955127D01*
X17424944Y-11955127D02*
X17434468Y-11926555D01*
X17434468Y-11926555D02*
X17443991Y-11907508D01*
X17443991Y-11907508D02*
X17463039Y-11878936D01*
X17463039Y-11878936D02*
X17472563Y-11869412D01*
X17529706Y-11897984D02*
X17653515Y-11897984D01*
X17653515Y-11897984D02*
X17586849Y-11974174D01*
X17586849Y-11974174D02*
X17615420Y-11974174D01*
X17615420Y-11974174D02*
X17634468Y-11983698D01*
X17634468Y-11983698D02*
X17643991Y-11993222D01*
X17643991Y-11993222D02*
X17653515Y-12012269D01*
X17653515Y-12012269D02*
X17653515Y-12059888D01*
X17653515Y-12059888D02*
X17643991Y-12078936D01*
X17643991Y-12078936D02*
X17634468Y-12088460D01*
X17634468Y-12088460D02*
X17615420Y-12097984D01*
X17615420Y-12097984D02*
X17558277Y-12097984D01*
X17558277Y-12097984D02*
X17539230Y-12088460D01*
X17539230Y-12088460D02*
X17529706Y-12078936D01*
X17891611Y-12097984D02*
X17891611Y-11897984D01*
X17977325Y-12097984D02*
X17977325Y-11993222D01*
X17977325Y-11993222D02*
X17967801Y-11974174D01*
X17967801Y-11974174D02*
X17948753Y-11964650D01*
X17948753Y-11964650D02*
X17920182Y-11964650D01*
X17920182Y-11964650D02*
X17901134Y-11974174D01*
X17901134Y-11974174D02*
X17891611Y-11983698D01*
X18101134Y-12097984D02*
X18082087Y-12088460D01*
X18082087Y-12088460D02*
X18072563Y-12078936D01*
X18072563Y-12078936D02*
X18063039Y-12059888D01*
X18063039Y-12059888D02*
X18063039Y-12002746D01*
X18063039Y-12002746D02*
X18072563Y-11983698D01*
X18072563Y-11983698D02*
X18082087Y-11974174D01*
X18082087Y-11974174D02*
X18101134Y-11964650D01*
X18101134Y-11964650D02*
X18129706Y-11964650D01*
X18129706Y-11964650D02*
X18148753Y-11974174D01*
X18148753Y-11974174D02*
X18158277Y-11983698D01*
X18158277Y-11983698D02*
X18167801Y-12002746D01*
X18167801Y-12002746D02*
X18167801Y-12059888D01*
X18167801Y-12059888D02*
X18158277Y-12078936D01*
X18158277Y-12078936D02*
X18148753Y-12088460D01*
X18148753Y-12088460D02*
X18129706Y-12097984D01*
X18129706Y-12097984D02*
X18101134Y-12097984D01*
X18282087Y-12097984D02*
X18263039Y-12088460D01*
X18263039Y-12088460D02*
X18253515Y-12069412D01*
X18253515Y-12069412D02*
X18253515Y-11897984D01*
X18434468Y-12088460D02*
X18415420Y-12097984D01*
X18415420Y-12097984D02*
X18377325Y-12097984D01*
X18377325Y-12097984D02*
X18358277Y-12088460D01*
X18358277Y-12088460D02*
X18348753Y-12069412D01*
X18348753Y-12069412D02*
X18348753Y-11993222D01*
X18348753Y-11993222D02*
X18358277Y-11974174D01*
X18358277Y-11974174D02*
X18377325Y-11964650D01*
X18377325Y-11964650D02*
X18415420Y-11964650D01*
X18415420Y-11964650D02*
X18434468Y-11974174D01*
X18434468Y-11974174D02*
X18443992Y-11993222D01*
X18443992Y-11993222D02*
X18443992Y-12012269D01*
X18443992Y-12012269D02*
X18348753Y-12031317D01*
X18520182Y-12088460D02*
X18539230Y-12097984D01*
X18539230Y-12097984D02*
X18577325Y-12097984D01*
X18577325Y-12097984D02*
X18596373Y-12088460D01*
X18596373Y-12088460D02*
X18605896Y-12069412D01*
X18605896Y-12069412D02*
X18605896Y-12059888D01*
X18605896Y-12059888D02*
X18596373Y-12040841D01*
X18596373Y-12040841D02*
X18577325Y-12031317D01*
X18577325Y-12031317D02*
X18548753Y-12031317D01*
X18548753Y-12031317D02*
X18529706Y-12021793D01*
X18529706Y-12021793D02*
X18520182Y-12002746D01*
X18520182Y-12002746D02*
X18520182Y-11993222D01*
X18520182Y-11993222D02*
X18529706Y-11974174D01*
X18529706Y-11974174D02*
X18548753Y-11964650D01*
X18548753Y-11964650D02*
X18577325Y-11964650D01*
X18577325Y-11964650D02*
X18596373Y-11974174D01*
X18672563Y-12174174D02*
X18682087Y-12164650D01*
X18682087Y-12164650D02*
X18701134Y-12136079D01*
X18701134Y-12136079D02*
X18710658Y-12117031D01*
X18710658Y-12117031D02*
X18720182Y-12088460D01*
X18720182Y-12088460D02*
X18729706Y-12040841D01*
X18729706Y-12040841D02*
X18729706Y-12002746D01*
X18729706Y-12002746D02*
X18720182Y-11955127D01*
X18720182Y-11955127D02*
X18710658Y-11926555D01*
X18710658Y-11926555D02*
X18701134Y-11907508D01*
X18701134Y-11907508D02*
X18682087Y-11878936D01*
X18682087Y-11878936D02*
X18672563Y-11869412D01*
M02*
