G04 #@! TF.GenerationSoftware,KiCad,Pcbnew,8.0.7*
G04 #@! TF.CreationDate,2025-01-11T12:37:20+01:00*
G04 #@! TF.ProjectId,NGCL,4e47434c-2e6b-4696-9361-645f70636258,rev?*
G04 #@! TF.SameCoordinates,Original*
G04 #@! TF.FileFunction,Legend,Top*
G04 #@! TF.FilePolarity,Positive*
%FSLAX46Y46*%
G04 Gerber Fmt 4.6, Leading zero omitted, Abs format (unit mm)*
G04 Created by KiCad (PCBNEW 8.0.7) date 2025-01-11 12:37:20*
%MOMM*%
%LPD*%
G01*
G04 APERTURE LIST*
G04 Aperture macros list*
%AMRoundRect*
0 Rectangle with rounded corners*
0 $1 Rounding radius*
0 $2 $3 $4 $5 $6 $7 $8 $9 X,Y pos of 4 corners*
0 Add a 4 corners polygon primitive as box body*
4,1,4,$2,$3,$4,$5,$6,$7,$8,$9,$2,$3,0*
0 Add four circle primitives for the rounded corners*
1,1,$1+$1,$2,$3*
1,1,$1+$1,$4,$5*
1,1,$1+$1,$6,$7*
1,1,$1+$1,$8,$9*
0 Add four rect primitives between the rounded corners*
20,1,$1+$1,$2,$3,$4,$5,0*
20,1,$1+$1,$4,$5,$6,$7,0*
20,1,$1+$1,$6,$7,$8,$9,0*
20,1,$1+$1,$8,$9,$2,$3,0*%
G04 Aperture macros list end*
%ADD10C,0.152400*%
%ADD11C,0.200000*%
%ADD12RoundRect,0.000000X-0.575000X-0.550000X0.575000X-0.550000X0.575000X0.550000X-0.575000X0.550000X0*%
%ADD13RoundRect,0.000000X0.550000X-0.575000X0.550000X0.575000X-0.550000X0.575000X-0.550000X-0.575000X0*%
%ADD14RoundRect,0.079167X-0.280833X-0.110833X0.280833X-0.110833X0.280833X0.110833X-0.280833X0.110833X0*%
%ADD15RoundRect,0.079167X0.110833X-0.280833X0.110833X0.280833X-0.110833X0.280833X-0.110833X-0.280833X0*%
%ADD16RoundRect,0.079167X0.280833X0.110833X-0.280833X0.110833X-0.280833X-0.110833X0.280833X-0.110833X0*%
%ADD17RoundRect,0.079167X-0.110833X0.280833X-0.110833X-0.280833X0.110833X-0.280833X0.110833X0.280833X0*%
%ADD18RoundRect,0.142000X-1.278000X1.278000X-1.278000X-1.278000X1.278000X-1.278000X1.278000X1.278000X0*%
G04 APERTURE END LIST*
D10*
X148430667Y-98462095D02*
X148092000Y-97978286D01*
X147850095Y-98462095D02*
X147850095Y-97446095D01*
X147850095Y-97446095D02*
X148237143Y-97446095D01*
X148237143Y-97446095D02*
X148333905Y-97494476D01*
X148333905Y-97494476D02*
X148382286Y-97542857D01*
X148382286Y-97542857D02*
X148430667Y-97639619D01*
X148430667Y-97639619D02*
X148430667Y-97784762D01*
X148430667Y-97784762D02*
X148382286Y-97881524D01*
X148382286Y-97881524D02*
X148333905Y-97929905D01*
X148333905Y-97929905D02*
X148237143Y-97978286D01*
X148237143Y-97978286D02*
X147850095Y-97978286D01*
X148769333Y-97446095D02*
X149398286Y-97446095D01*
X149398286Y-97446095D02*
X149059619Y-97833143D01*
X149059619Y-97833143D02*
X149204762Y-97833143D01*
X149204762Y-97833143D02*
X149301524Y-97881524D01*
X149301524Y-97881524D02*
X149349905Y-97929905D01*
X149349905Y-97929905D02*
X149398286Y-98026667D01*
X149398286Y-98026667D02*
X149398286Y-98268572D01*
X149398286Y-98268572D02*
X149349905Y-98365334D01*
X149349905Y-98365334D02*
X149301524Y-98413715D01*
X149301524Y-98413715D02*
X149204762Y-98462095D01*
X149204762Y-98462095D02*
X148914476Y-98462095D01*
X148914476Y-98462095D02*
X148817714Y-98413715D01*
X148817714Y-98413715D02*
X148769333Y-98365334D01*
X148430667Y-100462095D02*
X148092000Y-99978286D01*
X147850095Y-100462095D02*
X147850095Y-99446095D01*
X147850095Y-99446095D02*
X148237143Y-99446095D01*
X148237143Y-99446095D02*
X148333905Y-99494476D01*
X148333905Y-99494476D02*
X148382286Y-99542857D01*
X148382286Y-99542857D02*
X148430667Y-99639619D01*
X148430667Y-99639619D02*
X148430667Y-99784762D01*
X148430667Y-99784762D02*
X148382286Y-99881524D01*
X148382286Y-99881524D02*
X148333905Y-99929905D01*
X148333905Y-99929905D02*
X148237143Y-99978286D01*
X148237143Y-99978286D02*
X147850095Y-99978286D01*
X148817714Y-99542857D02*
X148866095Y-99494476D01*
X148866095Y-99494476D02*
X148962857Y-99446095D01*
X148962857Y-99446095D02*
X149204762Y-99446095D01*
X149204762Y-99446095D02*
X149301524Y-99494476D01*
X149301524Y-99494476D02*
X149349905Y-99542857D01*
X149349905Y-99542857D02*
X149398286Y-99639619D01*
X149398286Y-99639619D02*
X149398286Y-99736381D01*
X149398286Y-99736381D02*
X149349905Y-99881524D01*
X149349905Y-99881524D02*
X148769333Y-100462095D01*
X148769333Y-100462095D02*
X149398286Y-100462095D01*
X143462095Y-105169332D02*
X142978286Y-105507999D01*
X143462095Y-105749904D02*
X142446095Y-105749904D01*
X142446095Y-105749904D02*
X142446095Y-105362856D01*
X142446095Y-105362856D02*
X142494476Y-105266094D01*
X142494476Y-105266094D02*
X142542857Y-105217713D01*
X142542857Y-105217713D02*
X142639619Y-105169332D01*
X142639619Y-105169332D02*
X142784762Y-105169332D01*
X142784762Y-105169332D02*
X142881524Y-105217713D01*
X142881524Y-105217713D02*
X142929905Y-105266094D01*
X142929905Y-105266094D02*
X142978286Y-105362856D01*
X142978286Y-105362856D02*
X142978286Y-105749904D01*
X142784762Y-104298475D02*
X143462095Y-104298475D01*
X142397715Y-104540380D02*
X143123429Y-104782285D01*
X143123429Y-104782285D02*
X143123429Y-104153332D01*
X146313404Y-101146095D02*
X146313404Y-101968572D01*
X146313404Y-101968572D02*
X146361785Y-102065334D01*
X146361785Y-102065334D02*
X146410166Y-102113715D01*
X146410166Y-102113715D02*
X146506928Y-102162095D01*
X146506928Y-102162095D02*
X146700452Y-102162095D01*
X146700452Y-102162095D02*
X146797214Y-102113715D01*
X146797214Y-102113715D02*
X146845595Y-102065334D01*
X146845595Y-102065334D02*
X146893976Y-101968572D01*
X146893976Y-101968572D02*
X146893976Y-101146095D01*
X147909976Y-102162095D02*
X147329404Y-102162095D01*
X147619690Y-102162095D02*
X147619690Y-101146095D01*
X147619690Y-101146095D02*
X147522928Y-101291238D01*
X147522928Y-101291238D02*
X147426166Y-101388000D01*
X147426166Y-101388000D02*
X147329404Y-101436381D01*
X141662095Y-105169332D02*
X141178286Y-105507999D01*
X141662095Y-105749904D02*
X140646095Y-105749904D01*
X140646095Y-105749904D02*
X140646095Y-105362856D01*
X140646095Y-105362856D02*
X140694476Y-105266094D01*
X140694476Y-105266094D02*
X140742857Y-105217713D01*
X140742857Y-105217713D02*
X140839619Y-105169332D01*
X140839619Y-105169332D02*
X140984762Y-105169332D01*
X140984762Y-105169332D02*
X141081524Y-105217713D01*
X141081524Y-105217713D02*
X141129905Y-105266094D01*
X141129905Y-105266094D02*
X141178286Y-105362856D01*
X141178286Y-105362856D02*
X141178286Y-105749904D01*
X140646095Y-104250094D02*
X140646095Y-104733904D01*
X140646095Y-104733904D02*
X141129905Y-104782285D01*
X141129905Y-104782285D02*
X141081524Y-104733904D01*
X141081524Y-104733904D02*
X141033143Y-104637142D01*
X141033143Y-104637142D02*
X141033143Y-104395237D01*
X141033143Y-104395237D02*
X141081524Y-104298475D01*
X141081524Y-104298475D02*
X141129905Y-104250094D01*
X141129905Y-104250094D02*
X141226667Y-104201713D01*
X141226667Y-104201713D02*
X141468572Y-104201713D01*
X141468572Y-104201713D02*
X141565334Y-104250094D01*
X141565334Y-104250094D02*
X141613715Y-104298475D01*
X141613715Y-104298475D02*
X141662095Y-104395237D01*
X141662095Y-104395237D02*
X141662095Y-104637142D01*
X141662095Y-104637142D02*
X141613715Y-104733904D01*
X141613715Y-104733904D02*
X141565334Y-104782285D01*
X154330667Y-101462095D02*
X153992000Y-100978286D01*
X153750095Y-101462095D02*
X153750095Y-100446095D01*
X153750095Y-100446095D02*
X154137143Y-100446095D01*
X154137143Y-100446095D02*
X154233905Y-100494476D01*
X154233905Y-100494476D02*
X154282286Y-100542857D01*
X154282286Y-100542857D02*
X154330667Y-100639619D01*
X154330667Y-100639619D02*
X154330667Y-100784762D01*
X154330667Y-100784762D02*
X154282286Y-100881524D01*
X154282286Y-100881524D02*
X154233905Y-100929905D01*
X154233905Y-100929905D02*
X154137143Y-100978286D01*
X154137143Y-100978286D02*
X153750095Y-100978286D01*
X155298286Y-101462095D02*
X154717714Y-101462095D01*
X155008000Y-101462095D02*
X155008000Y-100446095D01*
X155008000Y-100446095D02*
X154911238Y-100591238D01*
X154911238Y-100591238D02*
X154814476Y-100688000D01*
X154814476Y-100688000D02*
X154717714Y-100736381D01*
D11*
G04 #@! TO.C,R3*
X144000000Y-97100000D02*
X147400000Y-97100000D01*
X144000000Y-98900000D02*
X144000000Y-97100000D01*
X147400000Y-97100000D02*
X147400000Y-98900000D01*
X147400000Y-98900000D02*
X144000000Y-98900000D01*
G04 #@! TO.C,R2*
X144000000Y-99100000D02*
X147400000Y-99100000D01*
X144000000Y-100900000D02*
X144000000Y-99100000D01*
X147400000Y-99100000D02*
X147400000Y-100900000D01*
X147400000Y-100900000D02*
X144000000Y-100900000D01*
G04 #@! TO.C,R4*
X142100000Y-106300000D02*
X143900000Y-106300000D01*
X142100000Y-109700000D02*
X142100000Y-106300000D01*
X143900000Y-106300000D02*
X143900000Y-109700000D01*
X143900000Y-109700000D02*
X142100000Y-109700000D01*
G04 #@! TO.C,U1*
X145037500Y-102700000D02*
X145037500Y-103000000D01*
X145037500Y-103000000D02*
X145337500Y-102700000D01*
X145037500Y-106500000D02*
X145037500Y-106800000D01*
X145037500Y-106800000D02*
X145337500Y-106800000D01*
X145337500Y-102700000D02*
X145037500Y-102700000D01*
X148837500Y-106800000D02*
X149137500Y-106800000D01*
X149137500Y-102700000D02*
X148837500Y-102700000D01*
X149137500Y-103000000D02*
X149137500Y-102700000D01*
X149137500Y-106800000D02*
X149137500Y-106500000D01*
X144487500Y-103500000D02*
G75*
G02*
X144287500Y-103500000I-100000J0D01*
G01*
X144287500Y-103500000D02*
G75*
G02*
X144487500Y-103500000I100000J0D01*
G01*
G04 #@! TO.C,R5*
X140300000Y-106300000D02*
X142100000Y-106300000D01*
X140300000Y-109700000D02*
X140300000Y-106300000D01*
X142100000Y-106300000D02*
X142100000Y-109700000D01*
X142100000Y-109700000D02*
X140300000Y-109700000D01*
G04 #@! TO.C,R1*
X149800000Y-100100000D02*
X153200000Y-100100000D01*
X149800000Y-101900000D02*
X149800000Y-100100000D01*
X153200000Y-100100000D02*
X153200000Y-101900000D01*
X153200000Y-101900000D02*
X149800000Y-101900000D01*
G04 #@! TD*
%LPC*%
D12*
G04 #@! TO.C,R3*
X144900000Y-98000000D03*
X146500000Y-98000000D03*
G04 #@! TD*
G04 #@! TO.C,R2*
X144900000Y-100000000D03*
X146500000Y-100000000D03*
G04 #@! TD*
D13*
G04 #@! TO.C,R4*
X143000000Y-108800000D03*
X143000000Y-107200000D03*
G04 #@! TD*
D14*
G04 #@! TO.C,U1*
X145175000Y-103500000D03*
X145175000Y-104000000D03*
X145175000Y-104500000D03*
X145175000Y-105000000D03*
X145175000Y-105500000D03*
X145175000Y-106000000D03*
D15*
X145837500Y-106662500D03*
X146337500Y-106662500D03*
X146837500Y-106662500D03*
X147337500Y-106662500D03*
X147837500Y-106662500D03*
X148337500Y-106662500D03*
D16*
X149000000Y-106000000D03*
X149000000Y-105500000D03*
X149000000Y-105000000D03*
X149000000Y-104500000D03*
X149000000Y-104000000D03*
X149000000Y-103500000D03*
D17*
X148337500Y-102837500D03*
X147837500Y-102837500D03*
X147337500Y-102837500D03*
X146837500Y-102837500D03*
X146337500Y-102837500D03*
X145837500Y-102837500D03*
D18*
X147087500Y-104750000D03*
G04 #@! TD*
D13*
G04 #@! TO.C,R5*
X141200000Y-108800000D03*
X141200000Y-107200000D03*
G04 #@! TD*
D12*
G04 #@! TO.C,R1*
X150700000Y-101000000D03*
X152300000Y-101000000D03*
G04 #@! TD*
%LPD*%
M02*
